<?xml version="1.0" encoding="UTF-8"?>
<svg version="1.1" xmlns="http://www.w3.org/2000/svg" width="500" height="500">
<path d="M0 0 C24.42 0 48.84 0 74 0 C74 0.66 74 1.32 74 2 C74.94875 1.773125 75.8975 1.54625 76.875 1.3125 C81.90496357 0.54819342 86.30731311 2.32876141 91 4 C91 4.99 91 5.98 91 7 C91.56074219 6.78214844 92.12148438 6.56429687 92.69921875 6.33984375 C97.85942543 5.57764005 102.90890406 10.49424126 106.92578125 13.38671875 C117.71255283 22.04093319 124.61566304 33.75992502 128 47 C128.25523437 47.88751953 128.25523437 47.88751953 128.515625 48.79296875 C130.00382291 55.57387051 130.14867175 62.29893213 130.14526367 69.20800781 C130.15030159 70.69241867 130.15030159 70.69241867 130.15544128 72.20681763 C130.16488826 75.45559974 130.1668907 78.70433004 130.16796875 81.953125 C130.17118377 84.21897401 130.17454803 86.48482281 130.17805481 88.75067139 C130.18402902 93.4880827 130.18589627 98.22547581 130.18530273 102.96289062 C130.18520077 109.03815031 130.19889595 115.11329403 130.21607494 121.18852615 C130.22717707 125.86216776 130.22922256 130.53578106 130.22869301 135.20943451 C130.22987417 137.45016635 130.23430353 139.69089889 130.24202538 141.93161774 C130.25179664 145.05768579 130.24895939 148.18349835 130.24291992 151.30957031 C130.24853943 152.23639618 130.25415894 153.16322205 130.25994873 154.11813354 C130.253657 155.39640518 130.253657 155.39640518 130.24723816 156.70050049 C130.24778293 157.43860584 130.24832769 158.1767112 130.24888897 158.93718338 C129.96177648 161.31680033 129.13819977 162.90690865 128 165 C127.46901392 167.3230641 127.05687418 169.65266129 126.671875 172.00390625 C124.90368001 181.41790733 119.91846677 188.63545948 114 196 C113.45730469 196.67804688 112.91460937 197.35609375 112.35546875 198.0546875 C109.34013485 201.70830376 109.34013485 201.70830376 108 203 C107.34 203 106.68 203 106 203 C105.2575 203.7425 104.515 204.485 103.75 205.25 C100.97809273 208.02190727 98.42942079 210.10287361 95 212 C92.625 211.75 92.625 211.75 91 211 C91 211.99 91 212.98 91 214 C89.69211261 214.49161725 88.37828093 214.96741758 87.0625 215.4375 C86.33160156 215.70433594 85.60070312 215.97117187 84.84765625 216.24609375 C73.34014194 219.29266475 60.68399438 218.2947883 48.88964844 218.35009766 C46.29645846 218.3666998 43.70331502 218.39404496 41.11035156 218.43212891 C37.34416311 218.48702265 33.57903508 218.50878429 29.8125 218.5234375 C28.66225342 218.54610687 27.51200684 218.56877625 26.3269043 218.59213257 C18.95139559 218.57287306 14.04815361 217.28362255 8 213 C8 212.34 8 211.68 8 211 C6.824375 209.8553125 6.824375 209.8553125 5.625 208.6875 C1.83922608 204.8115886 0.9010604 201.87481491 0.6875 196.5625 C0.78483889 192.36997509 1.78395797 189.61132775 4 186 C4.391875 185.154375 4.78375 184.30875 5.1875 183.4375 C8.55905708 178.90333704 13.50290858 176.14938037 19 175 C20.35595597 174.91221978 21.71542629 174.86942525 23.07421875 174.8671875 C23.82380859 174.86589844 24.57339844 174.86460937 25.34570312 174.86328125 C26.11849609 174.86714844 26.89128906 174.87101563 27.6875 174.875 C28.8640918 174.86919922 28.8640918 174.86919922 30.06445312 174.86328125 C35.87332251 174.87332251 35.87332251 174.87332251 37 176 C41.54206402 176.17799629 46.08191051 176.07202318 50.62524414 175.9777832 C52.15047056 175.95121131 53.67595922 175.93662401 55.20141602 175.93481445 C65.64335231 175.92000643 73.71280047 174.94402205 81.63256836 167.45654297 C86.82712793 161.68604669 87.30938951 156.2496019 87.38232422 148.85449219 C87.40703041 147.48519814 87.40703041 147.48519814 87.43223572 146.08824158 C87.48345364 143.07451178 87.51997648 140.0608373 87.5546875 137.046875 C87.58357366 134.9456548 87.6127218 132.84443819 87.64212036 130.7432251 C87.70104577 126.33847444 87.75182198 121.9337119 87.79785156 117.52880859 C87.85803561 111.89860635 87.94593212 106.26921404 88.04099846 100.63950729 C88.10990639 96.29862911 88.16012413 91.95767826 88.20520401 87.61649323 C88.2297029 85.5416909 88.26083372 83.46695545 88.29885483 81.39235687 C88.35013862 78.48243838 88.37519663 75.57337166 88.39404297 72.66308594 C88.41463272 71.81497849 88.43522247 70.96687103 88.45643616 70.09306335 C88.45667236 62.54544235 86.01413674 56.90930863 81.75 50.75 C72.89579207 41.89579207 64.21989825 41.84425049 52.2578125 41.796875 C51.13486786 41.79117493 50.01192322 41.78547485 48.85494995 41.77960205 C46.48648003 41.77018435 44.11799721 41.76363096 41.74951172 41.75976562 C38.14397187 41.75005112 34.5390003 41.71899256 30.93359375 41.6875 C28.62500336 41.68096979 26.31640892 41.67571939 24.0078125 41.671875 C22.93878693 41.6595282 21.86976135 41.6471814 20.76834106 41.63446045 C10.97341589 41.66334174 4.28281808 43.42770076 -3 50 C-3.66 50 -4.32 50 -5 50 C-5.66 51.32 -6.32 52.64 -7 54 C-7.66 54 -8.32 54 -9 54 C-9.226875 54.556875 -9.45375 55.11375 -9.6875 55.6875 C-11.37550036 58.66159588 -13.46676517 60.72008865 -16 63 C-16.66 63 -17.32 63 -18 63 C-18.99 64.98 -18.99 64.98 -20 67 C-20.66 67 -21.32 67 -22 67 C-22.3403125 67.8353125 -22.3403125 67.8353125 -22.6875 68.6875 C-24.37550036 71.66159588 -26.46676517 73.72008865 -29 76 C-29.66 76 -30.32 76 -31 76 C-31.99 77.98 -31.99 77.98 -33 80 C-33.66 80 -34.32 80 -35 80 C-35.226875 80.556875 -35.45375 81.11375 -35.6875 81.6875 C-37.37550036 84.66159588 -39.46676517 86.72008865 -42 89 C-42.66 89 -43.32 89 -44 89 C-44.99 90.98 -44.99 90.98 -46 93 C-46.66 93 -47.32 93 -48 93 C-48.226875 93.556875 -48.45375 94.11375 -48.6875 94.6875 C-50.37550036 97.66159588 -52.46676517 99.72008865 -55 102 C-55.66 102 -56.32 102 -57 102 C-57.99 103.98 -57.99 103.98 -59 106 C-59.66 106 -60.32 106 -61 106 C-61.226875 106.556875 -61.45375 107.11375 -61.6875 107.6875 C-63.37550036 110.66159588 -65.46676517 112.72008865 -68 115 C-68.66 115 -69.32 115 -70 115 C-70.99 116.98 -70.99 116.98 -72 119 C-72.66 119 -73.32 119 -74 119 C-74.268125 119.639375 -74.53625 120.27875 -74.8125 120.9375 C-76 123 -76 123 -79 124 C-80.20882096 126.00016466 -80.20882096 126.00016466 -81 128 C-81.66 128 -82.32 128 -83 128 C-83.66 129.32 -84.32 130.64 -85 132 C-85.66 132 -86.32 132 -87 132 C-87.268125 132.639375 -87.53625 133.27875 -87.8125 133.9375 C-89 136 -89 136 -92 137 C-93.20882096 139.00016466 -93.20882096 139.00016466 -94 141 C-94.66 141 -95.32 141 -96 141 C-96.66 142.32 -97.32 143.64 -98 145 C-98.66 145 -99.32 145 -100 145 C-100.66 146.32 -101.32 147.64 -102 149 C-102.66 149 -103.32 149 -104 149 C-104.268125 149.639375 -104.53625 150.27875 -104.8125 150.9375 C-106 153 -106 153 -109 154 C-109.28875 154.5775 -109.5775 155.155 -109.875 155.75 C-111.38249533 158.76499066 -113.57009676 160.69470718 -116 163 C-118.2363044 165.2363044 -117.95054911 168.03294674 -118 171 C-114.78709716 174.58048893 -112.58081411 176.27119025 -107.73876953 176.56762695 C-106.11990131 176.5668435 -104.50088391 176.53907331 -102.8828125 176.48828125 C-102.02565643 176.48120651 -101.16850037 176.47413177 -100.28536987 176.46684265 C-97.56433529 176.43899213 -94.84540593 176.37627456 -92.125 176.3125 C-90.27346735 176.2874049 -88.42190224 176.26459385 -86.5703125 176.24414062 C-82.04607154 176.18919651 -77.52339191 176.10299162 -73 176 C-73 175.67 -73 175.34 -73 175 C-67.30748309 174.92548061 -61.61525425 174.87122388 -55.92236328 174.83520508 C-53.98839365 174.82017925 -52.05445774 174.79975274 -50.12060547 174.77368164 C-47.33031864 174.73702409 -44.54048489 174.72021132 -41.75 174.70703125 C-40.466698 174.68380547 -40.466698 174.68380547 -39.1574707 174.66011047 C-32.63384665 174.65830832 -26.9631109 175.61629672 -21.72265625 179.83203125 C-17.77192155 184.54502535 -16 187.72140165 -16 194 C-15.34 194 -14.68 194 -14 194 C-14 195.65 -14 197.3 -14 199 C-14.66 199 -15.32 199 -16 199 C-15.773125 199.556875 -15.54625 200.11375 -15.3125 200.6875 C-14.72618232 205.02625083 -17.86000206 207.81579219 -20.375 211.125 C-24.21743917 215.33338576 -27.42102703 217.15317201 -33 218 C-35.82240043 218.10276917 -38.62047176 218.15711129 -41.44287109 218.16113281 C-42.28091782 218.16609772 -43.11896454 218.17106262 -43.98240662 218.17617798 C-46.74609202 218.1907454 -49.50972006 218.19759197 -52.2734375 218.203125 C-54.20008342 218.2088802 -56.12672934 218.21463788 -58.05337524 218.22039795 C-62.08994818 218.23089201 -66.12650129 218.23674535 -70.16308594 218.24023438 C-75.32682829 218.24572069 -80.49030718 218.26975846 -85.6539669 218.29820633 C-89.63289144 218.31685851 -93.61175276 218.32203965 -97.59071732 218.32357025 C-99.49404976 218.32659065 -101.39738126 218.33459842 -103.30067062 218.34775543 C-105.96676285 218.36487257 -108.63221447 218.36292211 -111.29833984 218.35644531 C-112.07883194 218.3656601 -112.85932404 218.37487488 -113.66346741 218.3843689 C-118.85038048 218.34503665 -122.33235323 217.25840471 -127 215 C-127.86109375 214.83371094 -128.7221875 214.66742188 -129.609375 214.49609375 C-138.76390266 212.59637968 -146.73734707 204.30652046 -152 197 C-152.36533626 195.675078 -152.70816701 194.34302732 -153 193 C-153.66 192.67 -154.32 192.34 -155 192 C-158.756766 185.5332005 -160.29640664 178.41016598 -160 171 C-160.185625 170.34 -160.37125 169.68 -160.5625 169 C-161.23812546 165.91142648 -160.50580468 163.09102862 -160 160 C-160 159.01 -160 158.02 -160 157 C-157.24803747 148.42657827 -153.00479195 140.73385058 -147 134 C-146.34 134 -145.68 134 -145 134 C-145 133.34 -145 132.68 -145 132 C-143.3203125 130.37890625 -143.3203125 130.37890625 -141.125 128.5625 C-138.53806278 126.41599116 -136.88815626 124.83223438 -135 122 C-134.34 122 -133.68 122 -133 122 C-133 121.34 -133 120.68 -133 120 C-132.34 120 -131.68 120 -131 120 C-130.505 118.515 -130.505 118.515 -130 117 C-129.34 117 -128.68 117 -128 117 C-128 116.34 -128 115.68 -128 115 C-126.58802182 113.81265471 -125.17185328 112.6281006 -123.703125 111.51171875 C-121.86466263 109.96750316 -121.86466263 109.96750316 -120.14650536 107.66682529 C-118.18577777 105.23081091 -116.15934034 103.03099389 -113.95278931 100.81907654 C-113.15661697 100.01863922 -112.36044464 99.2182019 -111.54014587 98.39350891 C-110.24337669 97.09741951 -110.24337669 97.09741951 -108.92041016 95.77514648 C-108.0028746 94.85425232 -107.08533905 93.93335815 -106.13999939 92.98455811 C-103.63201384 90.46776869 -101.12082121 87.95420339 -98.60874987 85.4414928 C-97.0375495 83.86958007 -95.46706401 82.29695676 -93.89683151 80.72407722 C-88.41356606 75.23157148 -82.92773457 69.7416439 -77.43945312 64.25415039 C-72.33164044 59.14693868 -67.22943415 54.03417334 -62.12982142 48.91877502 C-57.74345185 44.5193144 -53.35321964 40.12373364 -48.95998037 35.73113304 C-46.33956454 33.11097167 -43.72071064 30.48929536 -41.10573196 27.86370659 C-38.1888698 24.93533199 -35.2640164 22.01506648 -32.33837891 19.09545898 C-31.47791458 18.22937515 -30.61745026 17.36329132 -29.73091125 16.47096252 C-19.20488433 6 -19.20488433 6 -14 6 C-13.566875 5.54625 -13.13375 5.0925 -12.6875 4.625 C-9.70240727 1.75046626 -6.1800952 1.05130849 -2.125 0.875 C-1.42375 0.91625 -0.7225 0.9575 0 1 C0 0.67 0 0.34 0 0 Z M126 47 C127 49 127 49 127 49 Z M4 187 C5 189 5 189 5 189 Z " fill="#FEBE17" transform="translate(265,141)"/>
<path d="M0 0 C1.65 0 3.3 0 5 0 C5 0.66 5 1.32 5 2 C5.99 1.34 6.98 0.68 8 0 C9.9375 -0.01171875 9.9375 -0.01171875 12 0.3125 C13.0209375 0.46138672 13.0209375 0.46138672 14.0625 0.61328125 C23.12279534 2.42168697 30.84677308 7.61486722 36.1796875 15.03125 C42.7568862 25.06669802 44.41767162 34.73976428 42.375 46.5625 C39.83408254 56.74419051 31.86849432 64.23288357 23.3125 69.70703125 C15.46196196 74.09643681 5.55322512 74.09659122 -3.125 72.375 C-8.14200358 70.91435339 -12.84605434 68.13248361 -17 65 C-17 64.34 -17 63.68 -17 63 C-17.6084375 62.74089844 -18.216875 62.48179687 -18.84375 62.21484375 C-24.64478983 58.94650428 -27.19881887 50.8809471 -29.28515625 44.8984375 C-30.43079193 40.25329175 -30.33055525 35.74714066 -30 31 C-29.34 30.67 -28.68 30.34 -28 30 C-28.0825 29.34 -28.165 28.68 -28.25 28 C-27.46687525 18.60250304 -19.89726174 11.7998302 -13.5 5.5625 C-10.07752086 3.42345054 -6.95286874 2.82882732 -3 2 C-2.01 1.67 -1.02 1.34 0 1 C0 0.67 0 0.34 0 0 Z M-28 42 C-27 46 -27 46 -27 46 Z " fill="#FEBE17" transform="translate(144,132)"/>
<path d="M0 0 C1.62220963 -0.00956978 1.62220963 -0.00956978 3.27719116 -0.01933289 C4.44078156 -0.02044571 5.60437195 -0.02155853 6.80322266 -0.02270508 C8.0041153 -0.02603348 9.20500793 -0.02936188 10.44229126 -0.03279114 C12.9825197 -0.03785357 15.5227548 -0.04019967 18.06298828 -0.04003906 C21.94526148 -0.04222393 25.82724979 -0.0603828 29.70947266 -0.0793457 C32.17822168 -0.08228009 34.64697206 -0.08426458 37.11572266 -0.08520508 C38.27526459 -0.09239059 39.43480652 -0.09957611 40.62948608 -0.10697937 C45.99115999 -0.09181461 50.59682414 -0.07231673 55.59228516 2.14526367 C52.2029582 4.40481498 51.12329595 4.37930066 47.16210938 4.32470703 C46.05020233 4.31487289 44.93829529 4.30503876 43.79269409 4.29490662 C41.98806198 4.26530602 41.98806198 4.26530602 40.14697266 4.23510742 C37.60009966 4.21467442 35.05322457 4.19450039 32.50634766 4.17456055 C28.49063076 4.13116727 24.47505333 4.08312456 20.45947266 4.02880859 C16.58447727 3.98032338 12.70966269 3.95057678 8.83447266 3.92260742 C7.64352997 3.90084946 6.45258728 3.87909149 5.22555542 3.85667419 C-4.9795172 3.79637277 -11.80764546 5.28666447 -19.40771484 12.14526367 C-20.06771484 12.14526367 -20.72771484 12.14526367 -21.40771484 12.14526367 C-22.06771484 13.46526367 -22.72771484 14.78526367 -23.40771484 16.14526367 C-24.06771484 16.14526367 -24.72771484 16.14526367 -25.40771484 16.14526367 C-25.63458984 16.70213867 -25.86146484 17.25901367 -26.09521484 17.83276367 C-27.78321521 20.80685955 -29.87448001 22.86535232 -32.40771484 25.14526367 C-33.06771484 25.14526367 -33.72771484 25.14526367 -34.40771484 25.14526367 C-35.06771484 26.46526367 -35.72771484 27.78526367 -36.40771484 29.14526367 C-37.06771484 29.14526367 -37.72771484 29.14526367 -38.40771484 29.14526367 C-38.63458984 29.70213867 -38.86146484 30.25901367 -39.09521484 30.83276367 C-40.78321521 33.80685955 -42.87448001 35.86535232 -45.40771484 38.14526367 C-46.06771484 38.14526367 -46.72771484 38.14526367 -47.40771484 38.14526367 C-48.06771484 39.46526367 -48.72771484 40.78526367 -49.40771484 42.14526367 C-50.06771484 42.14526367 -50.72771484 42.14526367 -51.40771484 42.14526367 C-51.63458984 42.70213867 -51.86146484 43.25901367 -52.09521484 43.83276367 C-53.78321521 46.80685955 -55.87448001 48.86535232 -58.40771484 51.14526367 C-59.06771484 51.14526367 -59.72771484 51.14526367 -60.40771484 51.14526367 C-61.06771484 52.46526367 -61.72771484 53.78526367 -62.40771484 55.14526367 C-63.06771484 55.14526367 -63.72771484 55.14526367 -64.40771484 55.14526367 C-64.63458984 55.70213867 -64.86146484 56.25901367 -65.09521484 56.83276367 C-66.78321521 59.80685955 -68.87448001 61.86535232 -71.40771484 64.14526367 C-72.06771484 64.14526367 -72.72771484 64.14526367 -73.40771484 64.14526367 C-74.06771484 65.46526367 -74.72771484 66.78526367 -75.40771484 68.14526367 C-76.06771484 68.14526367 -76.72771484 68.14526367 -77.40771484 68.14526367 C-77.63458984 68.70213867 -77.86146484 69.25901367 -78.09521484 69.83276367 C-79.78321521 72.80685955 -81.87448001 74.86535232 -84.40771484 77.14526367 C-85.06771484 77.14526367 -85.72771484 77.14526367 -86.40771484 77.14526367 C-87.06771484 78.46526367 -87.72771484 79.78526367 -88.40771484 81.14526367 C-89.06771484 81.14526367 -89.72771484 81.14526367 -90.40771484 81.14526367 C-90.67583984 81.78463867 -90.94396484 82.42401367 -91.22021484 83.08276367 C-92.40771484 85.14526367 -92.40771484 85.14526367 -95.40771484 86.14526367 C-96.61653581 88.14542833 -96.61653581 88.14542833 -97.40771484 90.14526367 C-98.06771484 90.14526367 -98.72771484 90.14526367 -99.40771484 90.14526367 C-100.06771484 91.46526367 -100.72771484 92.78526367 -101.40771484 94.14526367 C-102.06771484 94.14526367 -102.72771484 94.14526367 -103.40771484 94.14526367 C-103.67583984 94.78463867 -103.94396484 95.42401367 -104.22021484 96.08276367 C-105.40771484 98.14526367 -105.40771484 98.14526367 -108.40771484 99.14526367 C-109.61653581 101.14542833 -109.61653581 101.14542833 -110.40771484 103.14526367 C-111.06771484 103.14526367 -111.72771484 103.14526367 -112.40771484 103.14526367 C-113.06771484 104.46526367 -113.72771484 105.78526367 -114.40771484 107.14526367 C-115.06771484 107.14526367 -115.72771484 107.14526367 -116.40771484 107.14526367 C-117.06771484 108.46526367 -117.72771484 109.78526367 -118.40771484 111.14526367 C-119.06771484 111.14526367 -119.72771484 111.14526367 -120.40771484 111.14526367 C-120.67583984 111.78463867 -120.94396484 112.42401367 -121.22021484 113.08276367 C-122.40771484 115.14526367 -122.40771484 115.14526367 -125.40771484 116.14526367 C-125.69646484 116.74338867 -125.98521484 117.34151367 -126.28271484 117.95776367 C-127.76308802 120.83626708 -129.83050055 122.24626367 -132.40771484 124.14526367 C-132.40771484 120.14526367 -132.40771484 120.14526367 -130.77182674 118.01159763 C-129.99923802 117.24009845 -129.2266493 116.46859926 -128.4306488 115.67372131 C-127.54886459 114.78354813 -126.66708038 113.89337494 -125.75857544 112.97622681 C-124.76868502 111.99730401 -123.77859651 111.01858149 -122.78833008 110.04003906 C-121.75452004 109.00408348 -120.72157643 107.96726264 -119.68943787 106.92964172 C-116.87998925 104.11048362 -114.05817232 101.30401013 -111.23375201 98.49986196 C-108.27826216 95.56193235 -105.33331453 92.61347047 -102.38697815 89.66636658 C-97.43282791 84.71409093 -92.47098691 79.76962837 -87.50415039 74.83007812 C-81.770658 69.12796882 -76.04761655 63.4155429 -70.33053058 57.69698721 C-64.23826416 51.60336636 -58.13839113 45.51740358 -52.03628659 39.43363643 C-50.28267466 37.68427661 -48.53047854 35.93350935 -46.77859306 34.18242073 C-44.01642369 31.42227047 -41.24917328 28.66731268 -38.47802162 25.91618156 C-37.46495267 24.90892259 -36.45353282 23.90000167 -35.44394684 22.88925171 C-30.34590703 17.78756142 -25.35697083 13.21694728 -19.40771484 9.14526367 C-18.21938615 7.05679225 -18.21938615 7.05679225 -17.40771484 5.14526367 C-15.60302734 3.91479492 -15.60302734 3.91479492 -13.53271484 2.95776367 C-12.85466797 2.63420898 -12.17662109 2.3106543 -11.47802734 1.97729492 C-7.59216283 0.4156173 -4.18512574 0.0167909 0 0 Z " fill="#FDD209" transform="translate(281.40771484375,178.854736328125)"/>
<path d="M0 0 C0.495 0.99 0.495 0.99 1 2 C-0.81291649 5.81666629 -2.29070176 7.20517827 -6 9 C-6.39409058 9.85319824 -6.39409058 9.85319824 -6.79614258 10.72363281 C-8.41707117 13.78863752 -10.7401624 15.96749692 -13.19921875 18.359375 C-13.71249222 18.8674469 -14.22576569 19.3755188 -14.7545929 19.89898682 C-16.39419699 21.52083649 -18.04031153 23.1358566 -19.6875 24.75 C-28.79589561 33.67608367 -28.79589561 33.67608367 -37.36108398 43.11865234 C-40.48457592 46.70417728 -43.83887087 50.06371684 -47.1875 53.4375 C-47.88552734 54.15615234 -48.58355469 54.87480469 -49.30273438 55.61523438 C-50.31883789 56.63907227 -50.31883789 56.63907227 -51.35546875 57.68359375 C-52.26268677 58.60483032 -52.26268677 58.60483032 -53.18823242 59.54467773 C-55.15970845 61.12828757 -56.55684505 61.49997274 -59 62 C-60.51721176 63.40806622 -60.51721176 63.40806622 -61.8125 65.1875 C-63.8836263 67.74901893 -65.95142768 69.91275865 -68.5 72 C-70.91525522 73.99245343 -72.94970117 76.01874207 -74.9375 78.4375 C-78.22344244 82.42693689 -82.041808 85.69480922 -86 89 C-86.66 88.67 -87.32 88.34 -88 88 C-58.96 58.96 -29.92 29.92 0 0 Z " fill="#FCC50E" transform="translate(235,158)"/>
<path d="M0 0 C0.99 0 1.98 0 3 0 C3 28.38 3 56.76 3 86 C1.515 86.495 1.515 86.495 0 87 C0 58.29 0 29.58 0 0 Z " fill="#FEFE0A" transform="translate(353,207)"/>
<path d="M0 0 C22.11 0 44.22 0 67 0 C67 0.66 67 1.32 67 2 C67.99 2.495 67.99 2.495 69 3 C46.23 3 23.46 3 0 3 C0 2.01 0 1.02 0 0 Z " fill="#FEF808" transform="translate(267,141)"/>
<path d="M0 0 C0.99 0.33 1.98 0.66 3 1 C-1.03538276 5.50100385 -4.76987686 7.81410515 -10.87252808 8.32279968 C-12.34862872 8.31383774 -13.82469049 8.28815903 -15.30029297 8.2487793 C-16.51592674 8.23480606 -16.51592674 8.23480606 -17.75611877 8.22055054 C-20.41857966 8.18634269 -23.08010783 8.13042208 -25.7421875 8.07421875 C-27.59447275 8.04616834 -29.44677908 8.01947978 -31.29910278 7.99409485 C-36.1622424 7.92380114 -41.02487559 7.83505752 -45.88763428 7.74243164 C-50.85460331 7.65109908 -55.82182935 7.57726895 -60.7890625 7.50195312 C-70.5263722 7.35173697 -80.26323657 7.18202281 -90 7 C-90 6.34 -90 5.68 -90 5 C-88.97571396 4.99635437 -87.95142792 4.99270874 -86.89610291 4.98895264 C-77.22958772 4.95196522 -67.56339 4.89415156 -57.89711666 4.81609726 C-52.92789858 4.77663655 -47.95885734 4.74444113 -42.98950195 4.72900391 C-38.19118275 4.71382812 -33.39334975 4.67936607 -28.59524727 4.63169098 C-26.7673319 4.61688672 -24.93934712 4.60895953 -23.11137199 4.60811615 C-20.54499733 4.60574184 -17.97996127 4.57862603 -15.41381836 4.54589844 C-14.66287399 4.5509288 -13.91192963 4.55595917 -13.13822937 4.56114197 C-9.17247345 4.48321116 -6.58090503 3.98148237 -3.16163635 1.90338135 C-1.59662636 0.96120758 -1.59662636 0.96120758 0 0 Z " fill="#FDEE1A" transform="translate(241,351)"/>
<path d="M0 0 C0.66 0.33 1.32 0.66 2 1 C0.28016457 4.15303163 -1.58188272 6.6280367 -4.0625 9.1875 C-7.62344155 13.28392148 -9.06969796 17.56355917 -9 23 C-7.99256709 25.74021753 -6.71127374 27.58408413 -5 30 C-5 30.66 -5 31.32 -5 32 C-4.34 32 -3.68 32 -3 32 C-3 32.66 -3 33.32 -3 34 C-2.0925 34.268125 -1.185 34.53625 -0.25 34.8125 C2.72991834 35.90131632 4.68590359 36.86391101 7 39 C7 39.66 7 40.32 7 41 C2.24518354 40.42365861 -0.97048212 38.44931479 -5 36 C-5 35.34 -5 34.68 -5 34 C-5.78375 33.236875 -6.5675 32.47375 -7.375 31.6875 C-11.16077392 27.8115886 -12.0989396 24.87481491 -12.3125 19.5625 C-12.21516111 15.36997509 -11.21604203 12.61132775 -9 9 C-8.566875 8.13375 -8.13375 7.2675 -7.6875 6.375 C-5.56766626 3.39153029 -3.11441614 1.86864968 0 0 Z M-9 10 C-8 12 -8 12 -8 12 Z " fill="#FCC70A" transform="translate(278,318)"/>
<path d="M0 0 C0.495 0.99 0.495 0.99 1 2 C-0.81291649 5.81666629 -2.29070176 7.20517827 -6 9 C-6.25676514 9.55921143 -6.51353027 10.11842285 -6.77807617 10.69458008 C-8.48187974 13.90916892 -10.94477484 16.26984339 -13.48828125 18.82421875 C-14.02849411 19.37108841 -14.56870697 19.91795807 -15.12528992 20.48139954 C-16.26667424 21.63288542 -17.41076586 22.78169327 -18.55737305 23.92797852 C-20.30656854 25.68155369 -22.03914413 27.45049483 -23.77148438 29.22070312 C-24.88443396 30.33952008 -25.99833525 31.45739129 -27.11328125 32.57421875 C-27.6280452 33.10335373 -28.14280914 33.63248871 -28.673172 34.17765808 C-31.65050482 37.11788167 -33.77360329 38.68107232 -38 39 C-33.69372744 33.85170256 -29.17688069 29.04247928 -24.4140625 24.31640625 C-23.71227875 23.61603745 -23.010495 22.91566864 -22.28744507 22.19407654 C-20.06898864 19.98116973 -17.84706185 17.77178584 -15.625 15.5625 C-14.11044534 14.05296686 -12.59612015 12.54320343 -11.08203125 11.03320312 C-7.39066901 7.35280298 -3.69645931 3.67528043 0 0 Z " fill="#FDD009" transform="translate(235,158)"/>
<path d="M0 0 C-0.66 1.32 -1.32 2.64 -2 4 C-2.66 4 -3.32 4 -4 4 C-4.66 5.32 -5.32 6.64 -6 8 C-6.66 8 -7.32 8 -8 8 C-8.268125 8.639375 -8.53625 9.27875 -8.8125 9.9375 C-10 12 -10 12 -13 13 C-14.20882096 15.00016466 -14.20882096 15.00016466 -15 17 C-15.66 17 -16.32 17 -17 17 C-17.66 18.32 -18.32 19.64 -19 21 C-19.66 21 -20.32 21 -21 21 C-21.66 22.32 -22.32 23.64 -23 25 C-23.66 25 -24.32 25 -25 25 C-25.268125 25.639375 -25.53625 26.27875 -25.8125 26.9375 C-27 29 -27 29 -30 30 C-30.28875 30.598125 -30.5775 31.19625 -30.875 31.8125 C-32.35537318 34.69100341 -34.42278571 36.10099999 -37 38 C-37 33.56086615 -36.85027268 33.34938029 -33.92651367 30.42480469 C-33.25549118 29.74440125 -32.58446869 29.0639978 -31.89311218 28.36297607 C-31.15881485 27.63991272 -30.42451752 26.91684937 -29.66796875 26.171875 C-28.92041824 25.42286926 -28.17286774 24.67386353 -27.40266418 23.90216064 C-25.81940359 22.32056074 -24.23117937 20.74391653 -22.63842773 19.171875 C-20.19543011 16.75783611 -17.77163149 14.32568858 -15.34960938 11.890625 C-13.81100651 10.358259 -12.27132854 8.82697155 -10.73046875 7.296875 C-10.00224411 6.56571472 -9.27401947 5.83455444 -8.52372742 5.08123779 C-7.84324844 4.41344299 -7.16276947 3.74564819 -6.46166992 3.05761719 C-5.86432541 2.46567566 -5.2669809 1.87373413 -4.65153503 1.26385498 C-3 0 -3 0 0 0 Z " fill="#FEDA08" transform="translate(186,265)"/>
<path d="M0 0 C0.66 0 1.32 0 2 0 C3.92699621 6.10215468 1.68683272 10.53707101 -1 16 C-3 19.25 -3 19.25 -5 22 C-5.598125 22.94875 -6.19625 23.8975 -6.8125 24.875 C-9.59386001 28.84837145 -12.75174042 32.40501608 -16 36 C-16.99 35.67 -17.98 35.34 -19 35 C-13.43651926 27.52639087 -13.43651926 27.52639087 -10.875 24.4375 C-5.40463484 17.32602529 -1.55744784 8.84126954 0 0 Z " fill="#FDD408" transform="translate(389,308)"/>
<path d="M0 0 C0.33 0 0.66 0 1 0 C1.01030746 1.03237289 1.02061493 2.06474579 1.03123474 3.12840271 C1.12921351 12.8824583 1.23196936 22.63645356 1.33933926 32.39041042 C1.39438031 37.40437678 1.44776896 42.41834913 1.49731445 47.43237305 C1.54523713 52.27590253 1.59758769 57.11936618 1.65294075 61.96281624 C1.6732386 63.80585136 1.69197135 65.64890443 1.70907402 67.49197197 C1.73339885 70.0838249 1.76341146 72.67555671 1.79467773 75.26733398 C1.8004332 76.02043854 1.80618866 76.77354309 1.81211853 77.54946899 C1.88299348 82.75648078 2.36316222 87.83095647 3 93 C2.01 93.495 2.01 93.495 1 94 C0.34 94.99 -0.32 95.98 -1 97 C-0.67 64.99 -0.34 32.98 0 0 Z " fill="#FDE513" transform="translate(392,207)"/>
<path d="M0 0 C0.66 0.33 1.32 0.66 2 1 C-4.36700908 8.13710089 -10.93353088 15.04073972 -17.6875 21.8125 C-18.38738037 22.51689209 -19.08726074 23.22128418 -19.80834961 23.94702148 C-23.22699472 27.35602869 -26.69489624 30.703685 -30.26953125 33.94921875 C-30.89061768 34.51342529 -31.5117041 35.07763184 -32.15161133 35.65893555 C-34.11665807 37.08463912 -35.6267839 37.58451502 -38 38 C-35.25 33.125 -35.25 33.125 -33 32 C-32.54625 31.54625 -32.0925 31.0925 -31.625 30.625 C-29.86045798 28.86045798 -28.06579278 27.39940801 -26 26 C-25.34 26 -24.68 26 -24 26 C-23.690625 25.1646875 -23.690625 25.1646875 -23.375 24.3125 C-21.8570529 21.75958897 -20.03966431 20.31993959 -17.72265625 18.50390625 C-15.00768025 16.13368911 -12.79764537 13.35478861 -10.515625 10.57421875 C-9.76539063 9.79498047 -9.76539063 9.79498047 -9 9 C-8.34 9 -7.68 9 -7 9 C-6.773125 8.443125 -6.54625 7.88625 -6.3125 7.3125 C-4.64103234 4.36753316 -2.44723648 2.31843456 0 0 Z " fill="#FBC614" transform="translate(177,218)"/>
<path d="M0 0 C1.65 0 3.3 0 5 0 C5 0.66 5 1.32 5 2 C5.99 1.34 6.98 0.68 8 0 C9.9375 -0.01171875 9.9375 -0.01171875 12 0.3125 C13.0209375 0.46138672 13.0209375 0.46138672 14.0625 0.61328125 C17.2600682 1.25150555 20.12560509 2.43462968 23.0625 3.8125 C23.75472656 4.12832031 24.44695312 4.44414062 25.16015625 4.76953125 C27.35715045 6.23885858 28.02108355 7.58060545 29 10 C27.96359375 9.65066406 26.9271875 9.30132812 25.859375 8.94140625 C24.48961023 8.48169068 23.11981707 8.0220597 21.75 7.5625 C20.72712891 7.21735352 20.72712891 7.21735352 19.68359375 6.86523438 C10.06341341 3.64294096 2.88878292 3.77154188 -7 6 C-6.34 4.68 -5.68 3.36 -5 2 C-3.35 2 -1.7 2 0 2 C0 1.34 0 0.68 0 0 Z " fill="#FCC609" transform="translate(144,132)"/>
<path d="M0 0 C1.62490954 -0.02698189 3.24994633 -0.04638757 4.875 -0.0625 C6.23238281 -0.07990234 6.23238281 -0.07990234 7.6171875 -0.09765625 C10 0 10 0 12 1 C12 1.66 12 2.32 12 3 C13.98 3 15.96 3 18 3 C18 3.33 18 3.66 18 4 C6.78 4 -4.44 4 -16 4 C-15.67 3.01 -15.34 2.02 -15 1 C-10.05 1 -5.1 1 0 1 C0 0.67 0 0.34 0 0 Z " fill="#FBC917" transform="translate(192,316)"/>
<path d="M0 0 C0.33 0 0.66 0 1 0 C1.09796875 0.75023437 1.1959375 1.50046875 1.296875 2.2734375 C2.33369436 9.37028727 4.09910568 15.46165616 7 22 C7.67229753 23.66440327 8.34044665 25.33050558 9 27 C9.66 27 10.32 27 11 27 C11 27.66 11 28.32 11 29 C9.125 28.8125 9.125 28.8125 7 28 C5.875 25.5 5.875 25.5 5 23 C4.34 22.67 3.68 22.34 3 22 C-0.35246329 16.24195236 -2.83266072 8.66128577 -2 2 C-1.34 1.34 -0.68 0.68 0 0 Z " fill="#FCCD0B" transform="translate(107,311)"/>
<path d="M0 0 C5.64056203 1.41014051 10.80907341 3.54890615 16.1328125 5.87890625 C18.77299471 6.91123908 21.20950582 7.54513923 24 8 C24 8.66 24 9.32 24 10 C24.66 10 25.32 10 26 10 C26 10.66 26 11.32 26 12 C24.741875 11.87625 23.48375 11.7525 22.1875 11.625 C21.47980469 11.55539062 20.77210938 11.48578125 20.04296875 11.4140625 C18 11 18 11 15 9 C13.81664062 8.78150391 13.81664062 8.78150391 12.609375 8.55859375 C9.60773265 7.9160266 7.77172145 6.79301019 5.25 5.0625 C4.08210938 4.27552734 4.08210938 4.27552734 2.890625 3.47265625 C1 2 1 2 0 0 Z " fill="#FDD809" transform="translate(123,347)"/>
<path d="M0 0 C2.0625 0.4375 2.0625 0.4375 4 1 C0.14415668 4.48862014 -2.80355628 6.81899006 -8 8 C-8.66 7.67 -9.32 7.34 -10 7 C-10 7.99 -10 8.98 -10 10 C-11.41396902 10.50757862 -12.83131729 11.00574925 -14.25 11.5 C-15.03890625 11.7784375 -15.8278125 12.056875 -16.640625 12.34375 C-19 13 -19 13 -23 13 C-23 12.01 -23 11.02 -23 10 C-22.24976563 9.76925781 -21.49953125 9.53851563 -20.7265625 9.30078125 C-9.58999529 6.12997479 -9.58999529 6.12997479 0 0 Z " fill="#FEE20A" transform="translate(366,345)"/>
<path d="M0 0 C0.99 0.33 1.98 0.66 3 1 C3.66015625 2.890625 3.66015625 2.890625 4.0625 5.25 C4.56037654 7.93768945 4.98426271 9.96769714 6.1875 12.4375 C7.51080583 16.611003 6.61453872 20.72314271 6 25 C5.34 24.67 4.68 24.34 4 24 C3.40576172 22.11401367 3.40576172 22.11401367 2.9296875 19.66796875 C2.75566406 18.78689453 2.58164062 17.90582031 2.40234375 16.99804688 C2.22832031 16.07056641 2.05429687 15.14308594 1.875 14.1875 C1.60236328 12.81368164 1.60236328 12.81368164 1.32421875 11.41210938 C0.56452588 7.49083755 0 4.01562773 0 0 Z M3 7 C4 9 4 9 4 9 Z " fill="#FEC908" transform="translate(388,181)"/>
<path d="M0 0 C0.67957764 0.16298584 1.35915527 0.32597168 2.05932617 0.49389648 C5.44224262 1.07611199 8.61780164 1.11226467 12.05078125 1.09765625 C13.03899117 1.09553383 13.03899117 1.09553383 14.04716492 1.09336853 C16.13565762 1.087805 18.22404011 1.07525947 20.3125 1.0625 C21.73502449 1.05748028 23.15755066 1.0529182 24.58007812 1.04882812 C28.05342077 1.03784757 31.52669961 1.02060835 35 1 C35 1.33 35 1.66 35 2 C27.41 2 19.82 2 12 2 C12 2.66 12 3.32 12 4 C7.71 4 3.42 4 -1 4 C-0.67 2.68 -0.34 1.36 0 0 Z " fill="#FDE90B" transform="translate(297,316)"/>
<path d="M0 0 C0.58426758 0.22776123 1.16853516 0.45552246 1.77050781 0.69018555 C0.78050781 1.02018555 -0.20949219 1.35018555 -1.22949219 1.69018555 C-2.43831315 3.69035021 -2.43831315 3.69035021 -3.22949219 5.69018555 C-3.88949219 5.69018555 -4.54949219 5.69018555 -5.22949219 5.69018555 C-5.49761719 6.32956055 -5.76574219 6.96893555 -6.04199219 7.62768555 C-7.22949219 9.69018555 -7.22949219 9.69018555 -10.22949219 10.69018555 C-10.51824219 11.28831055 -10.80699219 11.88643555 -11.10449219 12.50268555 C-12.58486537 15.38118895 -14.65227789 16.79118554 -17.22949219 18.69018555 C-17.22949219 13.4802736 -15.59260989 12.50896759 -12.09277344 8.95776367 C-11.39539063 8.27133789 -10.69800781 7.58491211 -9.97949219 6.87768555 C-9.29757813 6.17192383 -8.61566406 5.46616211 -7.91308594 4.73901367 C-7.24921875 4.07708008 -6.58535156 3.41514648 -5.90136719 2.7331543 C-5.29389648 2.1249585 -4.68642578 1.5167627 -4.06054688 0.89013672 C-2.22949219 -0.30981445 -2.22949219 -0.30981445 0 0 Z " fill="#FEEB09" transform="translate(166.2294921875,284.309814453125)"/>
<path d="M0 0 C0.66 0.66 1.32 1.32 2 2 C1.154375 2.66 0.30875 3.32 -0.5625 4 C-3.12836693 6.12617612 -5.28268794 8.39755185 -7.4375 10.9375 C-10.19180288 14.17213385 -13.08137474 16.91566429 -16.35546875 19.61328125 C-18.71939035 21.60661181 -20.84734697 23.78211506 -23 26 C-23.66 25.67 -24.32 25.34 -25 25 C-16.75 16.75 -8.5 8.5 0 0 Z " fill="#FAA503" transform="translate(172,221)"/>
<path d="M0 0 C8.31795717 2.71828666 8.31795717 2.71828666 11.875 4.1875 C14.08785353 5.17856873 14.08785353 5.17856873 17 5 C17 5.66 17 6.32 17 7 C18.98 6.67 20.96 6.34 23 6 C23 6.66 23 7.32 23 8 C14.84800076 8.3006885 6.7461688 8.27044437 0 3 C0 2.01 0 1.02 0 0 Z " fill="#FBCA07" transform="translate(132,197)"/>
<path d="M0 0 C0.66 0.33 1.32 0.66 2 1 C1.79503906 1.78503906 1.59007813 2.57007813 1.37890625 3.37890625 C-0.03954244 8.91017745 -1.35496637 14.32370402 -2 20 C-2.99 19.67 -3.98 19.34 -5 19 C-5 14.08955677 -4.9420858 10.46359736 -3.0625 5.875 C-2.52302734 4.54082031 -2.52302734 4.54082031 -1.97265625 3.1796875 C-1 1 -1 1 0 0 Z " fill="#FDCF0A" transform="translate(110,287)"/>
<path d="M0 0 C0 5.61 0 11.22 0 17 C-0.99 16.67 -1.98 16.34 -3 16 C-4.2710735 12.83321116 -4.10265074 9.62266213 -4.0625 6.25 C-4.05347656 5.26515625 -4.04445313 4.2803125 -4.03515625 3.265625 C-4.02355469 2.51796875 -4.01195313 1.7703125 -4 1 C-2 0 -2 0 0 0 Z M-2 12 C-1 16 -1 16 -1 16 Z " fill="#FDCD08" transform="translate(118,162)"/>
<path d="M0 0 C3.18978258 2.71131519 5.42309851 6.14796701 7 10 C7.25 13.9375 7.25 13.9375 7 17 C6.01 16.67 5.02 16.34 4 16 C3.26480478 14.02416285 2.60927518 12.01822402 2 10 C1.1646875 8.453125 1.1646875 8.453125 0.3125 6.875 C-1 4 -1 4 -0.6875 1.625 C-0.460625 1.08875 -0.23375 0.5525 0 0 Z " fill="#FDBB08" transform="translate(179,147)"/>
<path d="M0 0 C-4.53063698 4.90935895 -10.39381296 7.3393813 -17 8 C-17 6.68 -17 5.36 -17 4 C-16.37351563 3.79503906 -15.74703125 3.59007812 -15.1015625 3.37890625 C-14.28429687 3.10949219 -13.46703125 2.84007812 -12.625 2.5625 C-11.81289062 2.29566406 -11.00078125 2.02882812 -10.1640625 1.75390625 C-6.42421524 0.45103527 -4.0726316 -0.08853547 0 0 Z " fill="#FABD06" transform="translate(173,197)"/>
<path d="M0 0 C1.32 0.33 2.64 0.66 4 1 C4 2.65 4 4.3 4 6 C3.34 6 2.68 6 2 6 C2.226875 6.556875 2.45375 7.11375 2.6875 7.6875 C3.13305758 10.98462608 1.96515879 12.40318302 0 15 C-0.99 15.33 -1.98 15.66 -3 16 C-2.68289062 15.29488281 -2.36578125 14.58976562 -2.0390625 13.86328125 C-0.95461714 10.87494121 -0.6035641 8.34930342 -0.375 5.1875 C-0.26285156 3.72376953 -0.26285156 3.72376953 -0.1484375 2.23046875 C-0.09945312 1.49441406 -0.05046875 0.75835937 0 0 Z " fill="#FDD508" transform="translate(247,334)"/>
<path d="M0 0 C7.26 0 14.52 0 22 0 C22 0.66 22 1.32 22 2 C19.08379545 2.24901747 16.16888923 2.47485086 13.25 2.6875 C12.425 2.76033203 11.6 2.83316406 10.75 2.90820312 C9.95078125 2.96298828 9.1515625 3.01777344 8.328125 3.07421875 C7.22839355 3.16062622 7.22839355 3.16062622 6.10644531 3.2487793 C4 3 4 3 0 0 Z " fill="#FDE409" transform="translate(153,317)"/>
<path d="M0 0 C0.99 0.33 1.98 0.66 3 1 C0.33530947 6.53435725 -2.50481234 10.74779546 -7 15 C-7.7109375 13.2890625 -7.7109375 13.2890625 -8 11 C-6.6015625 8.7109375 -6.6015625 8.7109375 -4.625 6.375 C-2.04745383 3.36061133 -2.04745383 3.36061133 0 0 Z " fill="#FCBB07" transform="translate(181,182)"/>
<path d="M0 0 C4.62 0 9.24 0 14 0 C14.33 0.99 14.66 1.98 15 3 C9.39 3 3.78 3 -2 3 C-1.34 2.67 -0.68 2.34 0 2 C0 1.34 0 0.68 0 0 Z " fill="#FEDC08" transform="translate(216,316)"/>
<path d="M0 0 C4.47720074 -0.67158011 6.8123398 0.24510252 10.375 2.8125 C12.4609375 4.39453125 12.4609375 4.39453125 14 6 C14 6.99 14 7.98 14 9 C11 9 11 9 9.125 7.1875 C8.42375 6.465625 7.7225 5.74375 7 5 C3.76092991 2.68533392 3.76092991 2.68533392 0 2 C0 1.34 0 0.68 0 0 Z " fill="#FAB106" transform="translate(334,182)"/>
<path d="M0 0 C2.97 0 5.94 0 9 0 C8.01 0.495 8.01 0.495 7 1 C7 1.66 7 2.32 7 3 C-0.59 3 -8.18 3 -16 3 C-15.67 2.34 -15.34 1.68 -15 1 C-10.05 1 -5.1 1 0 1 C0 0.67 0 0.34 0 0 Z " fill="#FDEA0C" transform="translate(192,316)"/>
<path d="M0 0 C2.125 0.9375 2.125 0.9375 4 2 C2.37829621 3.00533667 0.75252763 4.00411907 -0.875 5 C-1.77992188 5.556875 -2.68484375 6.11375 -3.6171875 6.6875 C-6 8 -6 8 -8 8 C-8.33 8.99 -8.66 9.98 -9 11 C-9.99 10.67 -10.98 10.34 -12 10 C-10.37744772 8.51814875 -8.75188112 7.03959744 -7.125 5.5625 C-6.22007812 4.73878906 -5.31515625 3.91507813 -4.3828125 3.06640625 C-2 1 -2 1 0 0 Z " fill="#FDC408" transform="translate(248,147)"/>
<path d="M0 0 C0.66 0 1.32 0 2 0 C2 1.32 2 2.64 2 4 C1.40832031 4.04898438 0.81664062 4.09796875 0.20703125 4.1484375 C-4.19104472 4.56456867 -7.96928897 5.04965595 -12 7 C-11.875 5.125 -11.875 5.125 -11 3 C-7.26602153 1.30273706 -4.07842654 0.76009256 0 1 C0 0.67 0 0.34 0 0 Z " fill="#FCC80B" transform="translate(265,141)"/>
<path d="M0 0 C0.99 0.33 1.98 0.66 3 1 C2.60167969 1.44730469 2.20335937 1.89460937 1.79296875 2.35546875 C-1.17984125 5.74779939 -3.8282194 9.01840224 -6 13 C-6.6875 11.3125 -6.6875 11.3125 -7 9 C-5.26205705 5.34117274 -2.94897721 2.74559948 0 0 Z " fill="#FDAF09" transform="translate(128,140)"/>
<path d="M0 0 C4.62 0 9.24 0 14 0 C14 0.66 14 1.32 14 2 C11.47524538 3.26237731 9.68799534 3.09856404 6.875 3.0625 C5.96492187 3.05347656 5.05484375 3.04445313 4.1171875 3.03515625 C3.41851562 3.02355469 2.71984375 3.01195312 2 3 C2 2.34 2 1.68 2 1 C1.34 0.67 0.68 0.34 0 0 Z " fill="#F8A703" transform="translate(202,316)"/>
<path d="M0 0 C0.99 0.33 1.98 0.66 3 1 C0.01901136 4.32494886 -2.79764848 6.42411818 -7 8 C-9.375 7.1875 -9.375 7.1875 -11 6 C-10.484375 5.7525 -9.96875 5.505 -9.4375 5.25 C-7.08937386 4.08590712 -7.08937386 4.08590712 -5.28125 2.94140625 C-3.56275368 1.88919134 -1.78244203 0.93983307 0 0 Z " fill="#FDD70A" transform="translate(241,351)"/>
<path d="M0 0 C0.66 0 1.32 0 2 0 C1.43040847 3.62613199 0.07625466 5.25517741 -2.5625 7.75 C-3.52349609 8.67039062 -3.52349609 8.67039062 -4.50390625 9.609375 C-5.24447266 10.29773438 -5.24447266 10.29773438 -6 11 C-6.99 10.67 -7.98 10.34 -9 10 C-8.34 9.01 -7.68 8.02 -7 7 C-6.34 7 -5.68 7 -5 7 C-5 6.34 -5 5.68 -5 5 C-4.34 5 -3.68 5 -3 5 C-2.67 4.01 -2.34 3.02 -2 2 C-1.34 2 -0.68 2 0 2 C0 1.34 0 0.68 0 0 Z " fill="#FEEE0A" transform="translate(137,256)"/>
<path d="M0 0 C1.45903258 0.30921884 2.91720722 0.62248799 4.375 0.9375 C5.18710938 1.11152344 5.99921875 1.28554688 6.8359375 1.46484375 C9 2 9 2 11 3 C11.625 5.5625 11.625 5.5625 12 8 C10.02 7.01 8.04 6.02 6 5 C6 4.01 6 3.02 6 2 C5.34 2 4.68 2 4 2 C4 2.66 4 3.32 4 4 C3.01 4 2.02 4 1 4 C0.67 2.68 0.34 1.36 0 0 Z " fill="#FABE09" transform="translate(230,316)"/>
<path d="M0 0 C0.24042276 4.08718695 -0.57741188 7.17679443 -2 11 C-2.66 11 -3.32 11 -4 11 C-4 11.66 -4 12.32 -4 13 C-4.99 13.33 -5.98 13.66 -7 14 C-6.71125 13.154375 -6.4225 12.30875 -6.125 11.4375 C-5.34169928 9.04408113 -4.63893368 6.62343465 -4 4.1875 C-3.67 3.135625 -3.34 2.08375 -3 1 C-1 0 -1 0 0 0 Z " fill="#FCBD07" transform="translate(356,293)"/>
<path d="M0 0 C2 1 2 1 2.88671875 2.99609375 C3.15097656 3.80175781 3.41523438 4.60742188 3.6875 5.4375 C3.95949219 6.24058594 4.23148437 7.04367188 4.51171875 7.87109375 C5 10 5 10 4 12 C3.01 12 2.02 12 1 12 C0.7834375 10.6078125 0.7834375 10.6078125 0.5625 9.1875 C0.07899889 5.99274889 0.07899889 5.99274889 -1 3 C-0.67 2.01 -0.34 1.02 0 0 Z " fill="#FCC40A" transform="translate(352,195)"/>
<path d="M0 0 C4.87362847 0.45336079 7.39042389 1.7089159 11 5 C10.67 5.66 10.34 6.32 10 7 C5.05 5.02 5.05 5.02 0 3 C0 2.01 0 1.02 0 0 Z " fill="#FAB005" transform="translate(162,135)"/>
<path d="M0 0 C0.66 0.66 1.32 1.32 2 2 C1.01 5.3 0.02 8.6 -1 12 C-1.66 12 -2.32 12 -3 12 C-3.88336837 9.5332355 -4.1312406 8.36140628 -3.22265625 5.859375 C-2.83980469 5.16328125 -2.45695312 4.4671875 -2.0625 3.75 C-1.68222656 3.04359375 -1.30195312 2.3371875 -0.91015625 1.609375 C-0.60980469 1.07828125 -0.30945313 0.5471875 0 0 Z " fill="#FDC80A" transform="translate(120,149)"/>
<path d="M0 0 C0.33 0.66 0.66 1.32 1 2 C0.34 2 -0.32 2 -1 2 C-1.061875 2.7425 -1.12375 3.485 -1.1875 4.25 C-2.25841636 7.87464 -3.8291869 9.0371157 -7 11 C-7.99 10.67 -8.98 10.34 -10 10 C-9.67 9.34 -9.34 8.68 -9 8 C-8.34 8 -7.68 8 -7 8 C-7 7.34 -7 6.68 -7 6 C-5.46875 4.4921875 -5.46875 4.4921875 -3.5 2.875 C-2.8503125 2.33617187 -2.200625 1.79734375 -1.53125 1.2421875 C-0.77328125 0.62730469 -0.77328125 0.62730469 0 0 Z " fill="#FEEA08" transform="translate(127,267)"/>
<path d="M0 0 C3.3 0 6.6 0 10 0 C6.09618178 3.90381822 4.33820964 3.56244183 -1 4 C-0.34 3.67 0.32 3.34 1 3 C0.67 2.01 0.34 1.02 0 0 Z " fill="#F9AB07" transform="translate(287,316)"/>
<path d="M0 0 C0.66 0.33 1.32 0.66 2 1 C0.8141763 4.37503669 -0.27573689 6.64722731 -3 9 C-3.99 8.67 -4.98 8.34 -6 8 C-4.02 5.36 -2.04 2.72 0 0 Z " fill="#FDE80B" transform="translate(376,335)"/>
<path d="M0 0 C0.33 1.32 0.66 2.64 1 4 C-0.6875 6.3125 -0.6875 6.3125 -3 8 C-4.32 7.67 -5.64 7.34 -7 7 C-4.69 4.69 -2.38 2.38 0 0 Z " fill="#FDCE07" transform="translate(196,197)"/>
<path d="M0 0 C1.875 0.625 1.875 0.625 4 2 C5.25 5.125 5.25 5.125 6 8 C5.34 8.66 4.68 9.32 4 10 C0 3.375 0 3.375 0 0 Z " fill="#FDC708" transform="translate(381,167)"/>
<path d="M0 0 C3.82946843 1.45255699 5.12050295 3.42895561 7 7 C4.625 6.6875 4.625 6.6875 2 6 C0 3 0 3 0 0 Z " fill="#FDBA09" transform="translate(122,188)"/>
<path d="M0 0 C0.66 0.99 1.32 1.98 2 3 C1.125 6.6875 1.125 6.6875 0 10 C-0.66 10 -1.32 10 -2 10 C-2.1953125 3.9453125 -2.1953125 3.9453125 -2 2 C-1.34 1.34 -0.68 0.68 0 0 Z " fill="#FCB006" transform="translate(147,301)"/>
<path d="M0 0 C0.33 1.32 0.66 2.64 1 4 C1.99 4 2.98 4 4 4 C3.67 6.64 3.34 9.28 3 12 C2.34 11.67 1.68 11.34 1 11 C0.5859375 8.49609375 0.5859375 8.49609375 0.375 5.4375 C0.30023438 4.42558594 0.22546875 3.41367188 0.1484375 2.37109375 C0.09945313 1.58863281 0.05046875 0.80617187 0 0 Z " fill="#FEEB09" transform="translate(391,194)"/>
<path d="M0 0 C0.75 1.75 0.75 1.75 1 4 C-0.9375 6.25 -0.9375 6.25 -3 8 C-3.99 7.67 -4.98 7.34 -6 7 C-5.071875 6.1028125 -5.071875 6.1028125 -4.125 5.1875 C-1.86323046 2.99188856 -1.86323046 2.99188856 0 0 Z " fill="#FEEE0B" transform="translate(145,248)"/>
<path d="M0 0 C4.455 0.99 4.455 0.99 9 2 C5.77208445 4.1519437 4.71599191 4.20086443 1 4 C0.67 2.68 0.34 1.36 0 0 Z " fill="#FCC50D" transform="translate(328,179)"/>
<path d="M0 0 C3.875 0.875 3.875 0.875 5 2 C5.04063832 3.66617115 5.042721 5.33388095 5 7 C2.5 5.1875 2.5 5.1875 0 3 C0 2.01 0 1.02 0 0 Z " fill="#FDD70C" transform="translate(372,157)"/>
<path d="M0 0 C2.79872437 2.52788007 4.45773019 4.20411134 5 8 C3.0625 7.375 3.0625 7.375 1 6 C0.25 2.875 0.25 2.875 0 0 Z " fill="#FCD505" transform="translate(244,323)"/>
<path d="M0 0 C0 0.66 0 1.32 0 2 C-4.75 3.125 -4.75 3.125 -7 2 C-7 1.34 -7 0.68 -7 0 C-3.86650268 -1.04449911 -3.01031744 -0.93423645 0 0 Z " fill="#FDD30B" transform="translate(288,317)"/>
<path d="M0 0 C0.66 0 1.32 0 2 0 C2.33 1.32 2.66 2.64 3 4 C3.66 4 4.32 4 5 4 C5 4.66 5 5.32 5 6 C3.125 5.75 3.125 5.75 1 5 C-0.25 2.9375 -0.25 2.9375 -1 1 C-0.67 0.67 -0.34 0.34 0 0 Z " fill="#FDE00A" transform="translate(113,334)"/>
<path d="M0 0 C0.99 0.33 1.98 0.66 3 1 C2.67 1.99 2.34 2.98 2 4 C0.35 4.33 -1.3 4.66 -3 5 C-1.125 1.125 -1.125 1.125 0 0 Z " fill="#FDC008" transform="translate(133,136)"/>
<path d="M0 0 C0.99 0 1.98 0 3 0 C3 0.66 3 1.32 3 2 C3.66 2 4.32 2 5 2 C5 2.66 5 3.32 5 4 C2.69 3.67 0.38 3.34 -2 3 C-1.34 2.67 -0.68 2.34 0 2 C0 1.34 0 0.68 0 0 Z " fill="#FEE706" transform="translate(144,355)"/>
<path d="M0 0 C0 2.64 0 5.28 0 8 C-0.99 7.67 -1.98 7.34 -3 7 C-3 5.02 -3 3.04 -3 1 C-1 0 -1 0 0 0 Z " fill="#FEE306" transform="translate(269,335)"/>
<path d="M0 0 C0.66 0 1.32 0 2 0 C2.66 1.98 3.32 3.96 4 6 C2.68 5.67 1.36 5.34 0 5 C-0.5625 3.0625 -0.5625 3.0625 -1 1 C-0.67 0.67 -0.34 0.34 0 0 Z " fill="#FDCB0B" transform="translate(118,180)"/>
<path d="" fill="#FFB700" transform="translate(0,0)"/>
<path d="" fill="#FFC500" transform="translate(0,0)"/>
<path d="" fill="#FFD500" transform="translate(0,0)"/>
<path d="M0 0 C2 1 2 1 2 1 Z " fill="#FFC100" transform="translate(142,133)"/>
<path d="" fill="#FFFF00" transform="translate(0,0)"/>
<path d="" fill="#FF8000" transform="translate(0,0)"/>
<path d="" fill="#FF8000" transform="translate(0,0)"/>
<path d="" fill="#FFFF00" transform="translate(0,0)"/>
<path d="" fill="#FFBF00" transform="translate(0,0)"/>
<path d="" fill="#FFFF00" transform="translate(0,0)"/>
</svg>
